<svg id="Layer_1" data-name="Layer 1" xmlns="http://www.w3.org/2000/svg" viewBox="0 0 512 512"><defs><style>.cls-1{fill:#707070;}</style></defs><title>eye-handdrawn</title><path class="cls-1" d="M500.41,261.38c.23-5.88-.44-10.1-.44-7.43-.39,6.84-.16-7.2-3.51-18.44,2.59,11.36,3.32,21.08,1,35.07a69.76,69.76,0,0,0,1-11.07,44.27,44.27,0,0,0-.19-7.1,42.65,42.65,0,0,0-1.16-7.94,85.49,85.49,0,0,0-2.27-9.21,79.24,79.24,0,0,0-6.15-15.36,68.23,68.23,0,0,1,3.41,8.06,75.42,75.42,0,0,0-20.79-27.79,77,77,0,0,1,20.41,32.94,79.25,79.25,0,0,1,2.82,32c-.25,0,.06-5.68-1,1a82,82,0,0,1-13.1,33.35,93.27,93.27,0,0,1-14.17,15.43c-4.85,4.55-9.78,8.76-14.23,12.66a379.78,379.78,0,0,1-33.9,26c-8,5.14-17.36,11.53-30.63,19.11-6.65,3.94-13.62,7.43-20.56,10.92l-.11-.11a382.74,382.74,0,0,0,49.32-29.58c-8.79,6.06-17.58,11.6-26.48,16.9-30,17.65-63.25,31.19-97.51,36.82-27.21,5.12-62.69.66-46.38,1.22,12.11.57,29.68-.76,45.41-3.52l14.6-2.82a18,18,0,0,1-1.81.73c5.49-1.32,10.35-2.75,15.44-4.1,5-1.57,10.19-3.38,16.29-5.46-11.34,3.65-17.66,5.55-19.16,5.78-.69-.08-2,.07-1.54-.24.66-.44-1-.29.16-.84a35.66,35.66,0,0,1,4.32-1.5l11.89-4.21c9.18-3.22,23.31-9.44,25.4-10.78,1.47-.83,3.35-1.73,6.18-3.07l11.67-6c4.8-2.56,10.42-5.9,15.31-8.76l10.44-6.75c4.08-2.83.17-.67-.48-.66,1-.68,3.55-2.35,7.37-5.05a354.07,354.07,0,0,1-34.56,20.75L370.12,374a286.6,286.6,0,0,1-47.4,19.35,241.11,241.11,0,0,1-47.21,9.51c.8-.13,1.56-.25,2.35-.35a127.06,127.06,0,0,1-13.27.82,102,102,0,0,1-11.19.08c-3.07-.4-4.13-.7-9.12-1.12-2.63,0-13.6-1.75-18.17-2.15a242.3,242.3,0,0,1-50-13.53,307.31,307.31,0,0,1-46-22.29c-7.29-4.24-15.33-9.24-21.32-13.31a442.33,442.33,0,0,1-46.64-35.65c-3.84-3.24-7.49-6.71-11.25-10.07-1.85-1.7-3.37-3.44-5.08-5.15s-3-3.75-4.46-5.61a65.56,65.56,0,0,1-10.92-26.09c-4.42-23.24,3.75-48.59,22-63.82A476.41,476.41,0,0,1,107.88,160c14.28-10,36.26-22.1,32-20.34-1.18.42-.35-.11,3.28-2l7.65-3.94c3.35-1.63,7.59-3.45,12.71-5.76s10.68-4.26,16-6.41a232.13,232.13,0,0,1,63.62-13.86,211.38,211.38,0,0,1,64.74,5.75c6.25,1.63,12.38,3.22,18.39,5.42l-2.63-.76c40.74,12.75,78.05,35,112.5,62.23-3.32-3.17,6.27,3.7,19.8,15.57,3.72,2.47,6.1,4,10.32,7.15,2.88,2.15,1.68.73-3.73-4.38a388.43,388.43,0,0,0-30-25.29,392.22,392.22,0,0,0-60.37-38.67c-6.78-3.63-14.3-7-21.51-10.19-7.37-2.85-14.35-5.88-20.58-7.66a240,240,0,0,0-57.14-11.5A216.8,216.8,0,0,0,211,110.14a252.79,252.79,0,0,0-26.7,7.68c-6.4,1.95-12.37,4.78-18.92,7.27-6.33,3-13.21,5.85-20.56,9.88,3.26-2.22-5.08.58-30.74,16.55a456.25,456.25,0,0,0-37.15,26.67C67.31,186,57.81,194,48.74,202.4a70.27,70.27,0,0,0-20.38,31,74.8,74.8,0,0,0-2.2,37.1c2.62,12.2,8,24,16.58,33.25a4,4,0,0,1,.45.62,51.75,51.75,0,0,1-4.92-5.87c-19.17-25.39-18.11-63.45,2.11-88,5.09-6.12,11-11.14,16.78-16.35S68.92,184,74.95,179.13a463.25,463.25,0,0,1,37.77-27.35c4.09-2.51,8.36-5.15,12.84-7.72a354.48,354.48,0,0,1,40.27-20.29c-1.3.31-.57-.26-4.23,1.22a311.69,311.69,0,0,0-32.1,14.63c20.26-11.65,20.29-11.17,35.07-17.34l12.2-4.63c11.36-4,27.3-9.21,42.25-11.73,7.38-1.73,14.58-2.13,20.49-3.07,6-.55,10.76-.69,13.56-1a94.77,94.77,0,0,1,13.12-.12,233.33,233.33,0,0,1,65.9,12.76c38.14,13.31,63.85,30.12,55.27,23.78-6.11-4,15.75,6.67,32.56,18.8,16.23,11.4,25.44,19.13,31.29,23.62s7.93,6.25,9,6.85c.82.47-2.73-2.91.62-.17,14.35,12.23,7.14,4.71-8.1-8.66,5,3.93,9.08,7.38,13.2,10.82-7.11-6.51-13.75-12.36-22-19.1s-21.81-16.54-27.34-20.21C392.45,133,360,115.36,326.78,105.18a234.34,234.34,0,0,0-69.07-10.8c1.34-.31,8.67-.42,7.44-.79A58.66,58.66,0,0,0,255.05,93l-13.31.39c-5.55.43-12.32,1.14-20.45,2.33,2.3-.81,4.24-1.18,6.19-1.69-23.3,2.8-46.94,10.35-60.92,15.8a308.09,308.09,0,0,0-56.1,28.33c-8.63,5.37-11.11,7.78-16.34,11.53l1.69-.92c-16,10.64-34.74,25.77-44.64,34.28-3,2.48-6.16,5.27-9.48,8.23a104.6,104.6,0,0,0-11,11A82,82,0,0,0,14.3,234.34,87,87,0,0,0,13,271.79,82,82,0,0,0,27.09,305a85.83,85.83,0,0,0,8.4,9.89l2.5,2.57,2.27,2.07,4.45,4.06c30,27.1,63.3,51.26,100.21,69.17,32,15.16,66.67,25.84,103.06,27.14,15.32.91,31.23-.51,46.55-2.89a277,277,0,0,0,43.38-11.14c42-14.74,78.26-37.46,112.06-65.22l9.72-8.08c5.17-4.28,9.35-7.89,12.85-11.14,1.81-1.69,3.3-2.93,5-4.69l4.74-5.06a88.1,88.1,0,0,0,13.44-22.15c2.86-7.35,3.23-10.35,3.45-12.41.23-1.66-1.48,4.26-.91,1.28A90.13,90.13,0,0,0,500.41,261.38ZM98,350.16c-10.31-7.34-18.75-14-23.9-18.36,9.14,7.17,18,13.69,28.41,20.69l8.76,6c3.93,2.43,8.76,5.7,15.14,9.44-11.23-6.66-15-9-18.75-11.55l.54.42c7.76,5.09,15.65,10,25.25,15.32C120.65,365.35,108.46,357.3,98,350.16Zm356.63-17.84c-4.42,3.53-8.76,7.21-13.23,10.63-7.41,5.85-14.91,11.45-22.7,16.89a371.54,371.54,0,0,1-40.8,24.81c-4.86,2.41-8.44,4.21-12.77,6,1.57-.76,3.14-1.53,4.64-2.39,31.35-15.35,60-35.23,86.38-57.46Zm-28.38,14.32c-3.37,2.49-6.73,4.87-10.09,7.19C419.56,351.46,423,349.1,426.27,346.64Zm59.58-132a59,59,0,0,1,2.87,5.22C487.86,218.23,487,216.55,485.85,214.67ZM98.39,333.06l7.6,5.32a354.19,354.19,0,0,0,61.57,34.38c2.85,1.48,5.88,2.67,9.3,4.14s7.24,3.18,12,4.7c2.17.73,5.86,2,10,3.27l12.66,3.27c0-.16,2.7.35-.52-.62-5.36-1.6-7.29-2.25-5.07-1.78l6.54,1.59,13.46,2.54a208.31,208.31,0,0,0,45.44,2,256.07,256.07,0,0,0,43.28-7.61c5.38-1.46,11.57-3.43,10.56-2.93-3.07,1.33-6.47,3-10.24,4.39l-12.08,4.25c-3.7.94-13,3.41-30.5,5-41.88,3.34-84.62-8.42-122.82-28.08C114.53,349.16,85.69,324.14,98.39,333.06Zm-62-91.18a63,63,0,0,0-.29,27.46,83.78,83.78,0,0,0,3.3,11.14c1.35,2.88,2.14,5.13,2.58,6.13a53.86,53.86,0,0,0,6.1,9.72c1.93,2.18,3.71,4.33,6.12,6.62l6.45,6.21c2.4,2.3,3.69,3.58,2.43,2.67-2.7-2-7.22-5.88-9.39-7.63a63.89,63.89,0,0,1-21.43-41.26A66.32,66.32,0,0,1,42.34,220c1.29-2.06,2.87-3.86,4.23-5.77,1.54-1.77,3.19-3.4,4.74-5.1,3.63-3.37,7.24-6.81,11.06-10.18,7.64-6.77,15.88-13.79,26.27-21.6a421.15,421.15,0,0,1,46.58-30.87c4.31-2.12,8.29-3.72,13-5.69,4.29-1.93,9.44-4,14.89-6-22.92,10-49.47,26.31-74.26,44.85-3.79,2.71-17.44,13.81-21,17.21-4.46,4-8.5,7.83-12,11.28a51.09,51.09,0,0,0-4.49,4.69,33.69,33.69,0,0,0-3.17,3.86A65.92,65.92,0,0,0,36.39,241.88Zm436.67,28.74a65.79,65.79,0,0,0,1-29.29c-.23-1.77-.05-1.85.61.06a43.44,43.44,0,0,1,2.26,12.23,51.12,51.12,0,0,1-1.53,16.89,57.15,57.15,0,0,1-10.13,21.14,32.46,32.46,0,0,1-3.88,4.52,60.71,60.71,0,0,1-4.68,4.56c-3.58,3.24-7.21,6.55-11.05,9.8l4.51-4.52-4.74,4.26c-26.54,22.17-55.21,41.79-86,56.22l3.13-1.8c4.84-2.41,9.66-5,14.36-7.74,4.77-2.62,9.38-5.49,13.91-8.33a423.73,423.73,0,0,0,49.44-36.52c3.87-3.4,7.83-6.68,11.58-10.17l5.65-5.14c1.39-1.53,2.91-2.94,4.26-4.49A56.47,56.47,0,0,0,473.05,270.62Zm-111.8,17.06c-1.33,3.17.3-3.64,1.43-9.39a116.08,116.08,0,0,1-5.47,16.94c3.15-8.62,3-10.54,3.31-12.82.14-1.15.32-2.41.79-4.74l1.44-11.27-1.21,7.31A116.53,116.53,0,0,0,361,256a101.68,101.68,0,0,1-6.38,35.55c-.26-.1.41-2.92-1,.23-.91,2.11-1.94,4.73-3.44,7.49a86.13,86.13,0,0,1-4.82,9,76.47,76.47,0,0,1-6,9.05l-3.17,4.25-3.34,3.73c-3.41,4.09-7.08,6.92-9.89,9.55-3,2.38-5.63,4.12-7.58,5.44a162.56,162.56,0,0,1-17.1,9.18c-3.8,1.65-7.78,3-11.74,4.27l-.07-.13A101.8,101.8,0,0,0,314.25,340c-1.49,1-3,2-4.55,2.85a83.1,83.1,0,0,1-10.21,5.4,96.71,96.71,0,0,1-26.78,8,99.28,99.28,0,0,1-27.75.42c-14.68-1.5-31.69-9.86-23.47-7.18a87.8,87.8,0,0,0,10.88,2.85A88.59,88.59,0,0,0,245,354.21a75.35,75.35,0,0,0,7.76.61l-1,.27a97,97,0,0,0,17.36-.82c-6.22.51-9.69.37-10.47.46-.34-.24-1-.39-.75-.58.76-.55-3.26-.9,9-1.94l8.4-1.5a34.19,34.19,0,0,0,5.5-1.54c1.59-.77,4.16-1.08,9.74-3.32l4.19-1.58,4.09-2a37.5,37.5,0,0,0,5.56-3.09c2.07-1.5,0-.55-.43-.69l3.82-2.47-5.23,3.16-4.75,2.28a59.69,59.69,0,0,1-8.41,3.47l-1.37.9a93.39,93.39,0,0,1-25.62,4.65,92.08,92.08,0,0,1-24-1.69c.24,0,.48.06.73.07-4.75-1.2-8.81-2.07-12-3.37a34.79,34.79,0,0,0-4.12-2.32c-1.29-.39-6.23-3.1-8.36-4.06a91.36,91.36,0,0,1-37.32-35.28c-2.4-3.52-4.13-8-5.85-11.19a93.06,93.06,0,0,1-5.3-58.49c5.38-24.35,21.4-45.84,41.06-58.43A102.91,102.91,0,0,1,219.21,169c3.62-1.7,6.09-2.6,4.86-2.54-1.25.32,1.61-1.56,12.88-4.11,2.75-.61,5.83-.95,8.74-1.44,22.2-2.57,45.42,2.43,64.08,14.94,2.8,1.79,5.23,4,7.85,5.95l-1.18-.77A96.38,96.38,0,0,1,351,236c0-2.4,1.75,3.44,2.58,12.69.7,2.23,1.3,3.67,1.95,6.39.44,1.87.64.91.58-3a79,79,0,0,0-2.84-20.4,99.15,99.15,0,0,0-16.08-33.83c-4.56-6.69-11.23-13.06-16.37-17.44a100.2,100.2,0,0,0-57.88-22.13,92.7,92.7,0,0,0-14.46.31c-3.46.34-6.82,1.08-10.42,1.63-3.51,1-7.3,1.8-11.39,3.26.83-.7.19-.72-2.53.13-1.35.45-3.26,1-5.68,2-2.35,1.14-5.33,2.44-8.81,4.31-3.36,2.16-7,4-10,6.53l-4.78,3.6-4.42,4A98.14,98.14,0,0,0,158.93,253a1.19,1.19,0,0,1-.13.39c0-1.29.09-2.6.14-4,1.66-32.68,21.3-63.54,49.83-79.56,2.12-1.37,4.67-2.18,7.08-3.41,3.47-1.86,7.3-2.91,11-4.35,3.76-1.17,7.61-2.12,11.45-3a3.42,3.42,0,0,0-2.36-.08c-2.69.48-5.68,1-8.78,1.62l-9.38,2.76c11.45-4.85,11.52-4.46,19.86-6.06l6.86-.92c3.14-.63,7-.5,11-.83s8.21.21,12.21.28c4,.56,7.75.92,10.86,1.49l7,1.49a38.15,38.15,0,0,1,6.69,1.93A100.79,100.79,0,0,1,323,178.68c16.4,14.07,24,29.06,21.94,23.58-.8-1.81.71-.08,3.19,3.36,2.17,3.58,5.4,8.89,7.18,14.29a115.42,115.42,0,0,1,5.7,20.74c.85,4,1.23,5.46,1.46,6.12.21.5.29-2.23.54.15.55,5.21.84,6.4,1,4.84a55,55,0,0,0-.51-11.52l1,4.92.46,4.57c0-5.44-.82-10.39-1.74-16.33-.72-2.91-1.64-6.67-2.65-10.09l-3-8.22c-5.73-15.74-18-33-33.34-44.72a104.39,104.39,0,0,0-34.11-17.87c.8-.1,4.72.91,4.19.38-.56-.3-5.36-3.57-23.48-6.27l3.62-.27c-12.86-2.2-26.85-1.76-35.25-.28a98.36,98.36,0,0,0-34,11.13c-5.08,2.87-6.48,4.35-9.51,6.43l1-.42c-9.32,5.83-19.44,15.39-24.39,21.07a108.51,108.51,0,0,0-17.86,27.92,107.38,107.38,0,0,0-8.32,35.67,109.56,109.56,0,0,0-.08,13.38,105.17,105.17,0,0,0,7,34.24,109.87,109.87,0,0,0,17.31,30.31A111.31,111.31,0,0,0,219,360.29a114.31,114.31,0,0,0,50.31,6.35,109,109,0,0,0,66.09-31.25c1.58-1.52,4-4.37,5-5.31,10.4-11.5,12-16.16,16.42-24.84a25.33,25.33,0,0,0,2.19-6c.19-.82-1.33,1.87-.84.44C359.29,296,362.52,285.24,361.25,287.68Zm-200.69-12.8a110.77,110.77,0,0,0,5.6,17.48,46.79,46.79,0,0,0,2.2,5.07,69.49,69.49,0,0,0,4.23,8.3c-3.61-5.79-4.25-8.12-5.42-10.15l.11.34,3.23,6.66c1.25,2.21,2.69,4.44,4.17,6.89C165.92,297,161.55,281.84,160.56,274.87Zm175.86,54.45a74.22,74.22,0,0,1-6.86,6.63,114.73,114.73,0,0,1-12.42,9.89c-7.52,4.74-15.51,9.27-23.88,11.91a37.22,37.22,0,0,1-7.6,2l2.76-.88a107.91,107.91,0,0,0,48.66-30.57ZM314.25,340c1.78-1.21,3.54-2.47,5.31-3.8C317.85,337.57,316,338.79,314.25,340ZM177,285.94c-1.86-5.54-1.76-8.23-.62-4.85l1.64,4a84.17,84.17,0,0,0,17.55,27.56,67.15,67.15,0,0,0,7.36,8,80.2,80.2,0,0,0,9,6.61c.07-.14,1.28.37,0-.55-4.18-3.27-3-2.36,6.47,3.13a89.83,89.83,0,0,0,41,9.7c2.63,0,5.7,0,5.19.15A59.78,59.78,0,0,1,253.24,342a37.78,37.78,0,0,1-5,0c-2.41-.41-5.71-.66-9.87-1.63-20-4.32-38.18-16.59-50.37-33C182.41,299.91,178.5,291.56,177,285.94ZM168.82,246c-.45,1.08-1.53,10.27-1.29,15.29,0,1.62-.15,2.52-.3,1.78-.33-1.6-.72-4.52-.93-5.89,0-8.72.66-17.21,3-25.08.78-4,2.51-7.71,3.72-11.5,1.77-3.56,3.1-7.3,5.22-10.58a81.92,81.92,0,0,1,20.16-24.4,106.26,106.26,0,0,1,23.59-14.42l6.95-1.38c2.25-.55,5-.69,7.86-1.11-11.94,2.74-25.86,9.34-37.6,18.82l-4.87,4.4c-1.92,1.93-3.64,4.06-4.42,4.95a53.59,53.59,0,0,0-4.63,6.5,29.69,29.69,0,0,0-3,5.23c-.65,1.39-1.52,3-2.74,5.16l-4,8.44-2.57,6.9c-.76,2.44-1.31,5-2,7.26C169.88,241,169.44,244.91,168.82,246Zm153.45,65.61a17.54,17.54,0,0,0,1.55-2.56A17.46,17.46,0,0,1,322,311.4a87.39,87.39,0,0,1-18.59,15.15,89.29,89.29,0,0,1-21.82,9.24,11.67,11.67,0,0,0,1.53-.7c2.33-.9,4.74-1.68,7.05-2.64l6.74-3.23c16.47-8.86,29.78-24.06,37.29-40.46,3.4-7.79,4.89-13.4,5.8-15.2s.79.1-.66,6.94c-.48,2.19-2,6-2.92,8.79A90.85,90.85,0,0,1,322.27,311.63Zm-18.24-14c6-6.33,6.68-9.15,9.12-14a8.28,8.28,0,0,0,1-3.5c0-.49-.9,1-.7.15.46-2.09,2-8.12,1.19-6.82-.94,1.68-.11-2.09.38-5.27a63,63,0,0,1-3.13,9.23c1.65-4.74,1.42-5.82,1.48-7.09s.25-2.79.9-8.72l-.71,3.94a60.36,60.36,0,0,0-1.24-9.55,53.92,53.92,0,0,1-3.38,18.84c-.26-.1-.06-1.64-.89,0-2,4.37-6.33,12.62-11,17.53a37.59,37.59,0,0,1-9.24,7.77c-2.4,1.25-5.11,2.9-9,4.67a60.65,60.65,0,0,1-6.14,2.2l-.05-.14a53.06,53.06,0,0,0,17.15-9.12A56.33,56.33,0,0,1,279.22,304a52.17,52.17,0,0,1-28.34,4.34c-7.65-.82-16.32-5.45-12-4.31A57.84,57.84,0,0,0,251,305.86c.54.1,2.58.25,3.94.31l-.53.3a49.34,49.34,0,0,0,8.82-.58c-3.16.19-4.92.08-5.32.12-.17-.25-.52-.41-.38-.6.37-.53-1.61-1,4.48-1.71,2.46-.47,6.3-1.3,6.83-1.76.75-.52,2-.66,4.75-1.77a29.19,29.19,0,0,0,6.73-3.43c1-.82-.14-.49-.41-.7l1.82-1.25a34,34,0,0,1-4.85,2.62,28.54,28.54,0,0,1-4.08,1.67l-.6.62a52.62,52.62,0,0,1-25.7,1.1,16.35,16.35,0,0,0,1.93.21,50,50,0,0,1-5.82-1.69,9.37,9.37,0,0,0-1.85-1.49c-.6-.24-2.93-1.62-3.95-2.06A42.79,42.79,0,0,1,219,278.83c-1.15-1.68-2-3.82-2.82-5.33a44.57,44.57,0,0,1-2.78-28A46.64,46.64,0,0,1,232.94,217c3.47-2.61,9.35-4.74,8.07-4.91-.68,0,.73-.94,6.28-2.14,1.35-.29,2.86-.47,4.3-.71a47.14,47.14,0,0,1,31.48,7.35c1.38.88,2.54,2,3.8,3l-.61-.34a47.27,47.27,0,0,1,17,26.92c.23-1.24,1.25,1.61,1.69,6.2a22.82,22.82,0,0,1,1.78,3.16c.4.94.62.46.65-1.53a35.45,35.45,0,0,0-1.4-10.36,50.64,50.64,0,0,0-8.24-17.13,46.3,46.3,0,0,0-8.34-8.79,51.83,51.83,0,0,0-29.32-10.84,43.4,43.4,0,0,0-7.26.23A49,49,0,0,0,242,209.75c.36-.53,0-.65-1.39-.29a31.69,31.69,0,0,0-7.34,3.1,50.88,50.88,0,0,0-9.68,7.16,49.56,49.56,0,0,0-15.93,34.75c0,.09-.07.12-.12.2l0-2c.8-16.53,10.69-32.2,25.15-40.35,1.08-.69,2.4-1,3.62-1.66a51.53,51.53,0,0,1,11.35-3.71c-.38-.12-.2-.42-1.25-.32-1.39.14-2.95.28-4.57.52l-4.94,1.11c5.83-2.69,5.9-2.5,10.25-3.1.64,0,2.27-.24,3.54-.41a73.14,73.14,0,0,1,11.94-.37c4.12.34,7.77,1,9.31,1.27a15,15,0,0,1,3.52.86,51.73,51.73,0,0,1,16,9.3c8.49,7.3,12.75,14.95,12,11.9-.68-2.08,4.14,3.23,6.18,9a76.48,76.48,0,0,1,3.23,11A12.29,12.29,0,0,0,314,251c.19.26.34-1.22.54.06.73,5.64,1.36,2.52.85-3.7a34.39,34.39,0,0,1,1,5.17,51.77,51.77,0,0,0-.8-9c-.38-1.6-.89-3.67-1.45-5.55l-1.61-4.53c-3-8.76-9.78-18.28-18.21-24.75A56.82,56.82,0,0,0,275.39,199c.49-.21,2.72.18,2.47-.25s-2.9-2.22-13-3.76l2.08-.5a65.94,65.94,0,0,0-19.8-.33,51.12,51.12,0,0,0-19.18,6.2,33.1,33.1,0,0,0-5.19,3.88l.62-.17a73.28,73.28,0,0,0-13.77,11.7,55.46,55.46,0,0,0-14.83,35.71,70.19,70.19,0,0,0,0,7.52,61.63,61.63,0,0,0,41,55.62A65.49,65.49,0,0,0,264,318.18a59.86,59.86,0,0,0,37.18-17.53Zm-95.62-32.14a58.71,58.71,0,0,0,3,8.76,56.41,56.41,0,0,0,3.17,6.76,53.43,53.43,0,0,1-2.8-5.08l0,.18a49.38,49.38,0,0,0,3.75,6.83A40.15,40.15,0,0,1,208.41,265.54Zm92.28,30.69a45.6,45.6,0,0,1-3.79,3.6,63.48,63.48,0,0,1-6.79,5.44A56.63,56.63,0,0,1,277,311.83a17.53,17.53,0,0,1-4.21.93l1.49-.56a59,59,0,0,0,26.7-16.6Zm-73.57-17.88c-5.07-6.58-5.58-14.59-4.2-11.7a15.17,15.17,0,0,1,.79,1.65,35.49,35.49,0,0,0,7.71,11.41,23.19,23.19,0,0,0,2.85,3.62,28.26,28.26,0,0,0,3.81,2.81c.08-.13.65,0,.14-.46-1.64-1.55-1.06-1.27,2.88,1a41.61,41.61,0,0,0,17.05,4.12c1.1,0,2.4.17,2.19.3a20.05,20.05,0,0,1-4.82,2.23c-.82.31-2.86.31-6.51-.5A38.17,38.17,0,0,1,227.12,278.35Zm-3.69-43.71c-.49,1.33-1.36,3.08-2.84,6.21-1.86,3.69-2.52,9.66-3.35,10.64-.39.46-1,4.64-1.11,7-.07.75-.22,1.17-.35.83-.28-.73-.59-2.08-.77-2.71a42.79,42.79,0,0,1,5.29-22A35.4,35.4,0,0,1,229.65,223a53.22,53.22,0,0,1,11.05-6.78l3.44-.1c1.1-.09,2.43,0,3.76,0-5.47,1.26-11.68,4.42-17.21,8.54a26.19,26.19,0,0,0-4.21,4.32A22,22,0,0,0,223.44,234.63Zm61.81,45.3a7.43,7.43,0,0,0,.47-1.26,6.63,6.63,0,0,1-.74,1,35.92,35.92,0,0,1-17.6,9.44,4.41,4.41,0,0,0,.6-.39,47.07,47.07,0,0,0,5.71-2.42c6.87-3.64,12.27-10,15.65-16.69,2.82-6.41,4.07-9.09,3.29-3.09a30.86,30.86,0,0,1-1.16,3.82A39,39,0,0,1,285.25,279.94ZM253.64,26.21c.25,2.05.45,4.12.88,6,.16.73.23,1.77.85,1.58.34-.1.35.16.26,1.1,0,.23,0,.48,0,.72,0,1.81,0,3.63,0,5.44a3.67,3.67,0,0,1-.18.8l-.09-.11.21,5.37c.51-.19.78.3.83,1,.59.18,1.11.3,1.62.52.7.3,1-.31.82-1.85-.09-1-.12-2-.18-3a12.35,12.35,0,0,0-.13-1.88,24.33,24.33,0,0,1-.75-5,8.13,8.13,0,0,0-.15-1.15c-.1-.55-.21-1.09-.35-1.78.75.16.94-.2.92-1.44,0-.63-.08-1.26-.07-1.89,0-2,.09-4.09.15-6.14,0,0,.06,0,.11,0a1.81,1.81,0,0,1,.06.31c.09,2.56.17,5.13.25,7.69,0,.2-.15.41-.15.62,0,.62,0,1.24,0,1.86.19-.05.4,0,.57-.18.45-.43.88-.94,1.34-1.45.42,1,.41.95-.06,1.6a1.4,1.4,0,0,0-.13.53,5.8,5.8,0,0,0,.75,3.19,1,1,0,0,1,.3.53c0,.91,0,1.83,0,2.74,0,1.64.66,2.88,1.4,2.45.51-.3,1.57.69,1.63,1.53.12,1.61.62,2,1.1,2.06.18,0,.41-.16.53,0,.56.77,1,.34,1.3-.48l.45.69a7.42,7.42,0,0,0,.36-1.18,12.22,12.22,0,0,1,0-1.37,11.58,11.58,0,0,0,.44-4c0-.88-.12-1.78-.2-2.76.72.11,1.58,1.14,1.71-1.43l.81.25a14.28,14.28,0,0,1,.41-2.47,4.38,4.38,0,0,0,.19-2.5c-.08-.41-.45-.54-.69-.8l-.19.08a11.26,11.26,0,0,1,.36-2.26,8.17,8.17,0,0,0,.29-4.88,4,4,0,0,1-.07-.93c0-1.63.06-3.26,0-4.89,0-1.41-.22-2.8-.25-4.21a22,22,0,0,1,.13-3.57,17.46,17.46,0,0,0,.1-5.19,1.27,1.27,0,0,1,0-.51c.51-1.08-.2-1.4-.3-2.09,0-.27-.41-.38-.64-.45s-.4.16-.57.05c-.43-.26-.89-1.06-1.25-.87s-.67-.26-.95-.68l-.32,1.28c-.32-1.32-1.22-.52-1.42-2.14l-.14.54L263.52,0V2.72c-.28,0-.62-.22-.84,0-.59.69-.31,2-.25,3a2.79,2.79,0,0,1-.25,1.75A2.32,2.32,0,0,0,261.85,9c0,.32,0,.63-.07,1h-.15l-.23-2.86a11,11,0,0,0-.11,1.79c0,1.43,0,2.87-.05,4.27-.06,1.11-.75,2.55-1.3,1.89a13,13,0,0,1-1.14-1.87,2.5,2.5,0,0,1,0-.61l.33.08-.34-1.36-.23.82a3.07,3.07,0,0,1-.62.06c-.51-.06-1.06.26-1.48-.73-.17-.4-.31-1-.52-1.15s-.27-.35-.29-.83a2.73,2.73,0,0,0-.3-1.25c-.2-.21-.49,0-.81,0l-.12-.37-.06,1.68.37.13a21.2,21.2,0,0,0-.26,2.14c0,.7.09,1.41.16,2.25l-.24-.33-.12,1a2.52,2.52,0,0,0-.76.38,1.36,1.36,0,0,0-.25.77,31.87,31.87,0,0,1-.15,4.33,6.25,6.25,0,0,0,0,1.05C253.47,22.82,253.44,24.57,253.64,26.21ZM267.55,5.71l.2.09a4.34,4.34,0,0,0-.1.69c0,.38.06.76.08,1.14,0,.64.07,1.29,0,1.92,0,.22-.24.38-.37.56l-.16-.21Zm-9.5,14.55.15.91,0,0,0-1.22a4.33,4.33,0,0,1,.11,3,15,15,0,0,1-.42-1.45A5.86,5.86,0,0,1,258.05,20.26ZM243.8,11.52a21.33,21.33,0,0,1,2.17,1c.31.17.39.58.34,1.35-.12,1.83-.2,3.69-.2,5.53,0,1.67-.91,3.27-1.63,2.62a.91.91,0,0,1-.17-.39c-.22-1-.43-2-.66-3a5.79,5.79,0,0,0,.61-1,4.27,4.27,0,0,0,0-1c-.16,0-.34-.12-.46,0-.4.49-.59.36-.6-.66,0-1.33-.33-2.74.16-4C243.48,11.75,243.67,11.47,243.8,11.52Zm4.79,17.24a1.3,1.3,0,0,1-.37-1.33c.12-.8-.1-2,.61-2.17.34-.1.64-.9,1-1.33.11-.14.27-.22.39-.15a4.13,4.13,0,0,1,.63.51c.18,1.49.31,2.87.51,4.19a8.15,8.15,0,0,1,.26,2.69,15.13,15.13,0,0,0,0,2.35c-.37.2-.73.38-1.09.59s-.66.43-1,.68c0-1.06-.37-2.37.13-3.67a2.37,2.37,0,0,0-.11-1.14A4.25,4.25,0,0,0,248.59,28.75ZM243.18,9.9,243,9.74c0-.47,0-.94,0-1.4.11-1.74-.12-3.54.36-5.21s1.47-2.14,2.07-.87a2,2,0,0,1,.17.84c0,.78-.15,1.55-.23,2.4l-.44-.27.1.27ZM80.61,45.84c.38.47,1.15,1.06,1.34,1.4a22.87,22.87,0,0,0,3.73,4.34c.87.89,1.87,1.69,2.9,2.62-.61.4-2.26,0,.22,2.64l-.82.32a28,28,0,0,1,2.18,2.76,8.62,8.62,0,0,0,2.36,2.63c.46.35.86.22,1.29.31l.06-.21a22.2,22.2,0,0,1,2,2.51,16.1,16.1,0,0,0,4.67,5.08,7.86,7.86,0,0,1,1,.88c1.63,1.63,3.22,3.31,4.87,4.9,1.43,1.38,3,2.65,4.38,4a43.81,43.81,0,0,1,3.48,3.66A34.81,34.81,0,0,0,119.39,89a2.53,2.53,0,0,1,.49.52c.72,1.44,1.54,1.26,2.3,1.87a.87.87,0,0,0,.9,0c.19-.07.12-.44.35-.45.57,0,1.69.44,1.75,0s.73-.22,1.35,0l-1.06-1.51c1.55,1.1,1.39-.34,3.15,1.13l-.44-.64,2.78-.17L128.25,87c.2-.2.66-.22.55-.64-.27-1.11-1.81-2.25-2.82-3.18a5.39,5.39,0,0,1-1.57-1.93,4.41,4.41,0,0,0-1.25-1.71c-.32-.31-.6-.66-.9-1l.1-.1,3,2.7a21.86,21.86,0,0,0-1.72-1.87c-1.42-1.43-2.88-2.85-4.24-4.31-1.07-1.16-2-3.08-1-2.81a20.81,20.81,0,0,1,2.67,1.06,5,5,0,0,1,.62.61l-.31.15,1.6,1.12-.66-1a2.23,2.23,0,0,1,.38-.5c.42-.3.49-1,1.77-.32.52.28,1.27.82,1.51.78s.54.16,1,.63a5.19,5.19,0,0,0,1.46,1c.35.06.37-.33.57-.58l.46.28-1.64-1.72-.39.13c-.7-.83-1.28-1.61-2-2.32s-1.48-1.34-2.36-2.13l.5.15-.94-1.11a2.39,2.39,0,0,0,.15-.93,2.51,2.51,0,0,0-.59-.95c-1.65-1.35-2.76-3-4.22-4.43a12.27,12.27,0,0,0-1.08-1c-1.8-1.34-3.52-3.1-5.3-4.6-2.23-1.88-4.44-3.8-6.65-5.41-.84-.61-1.93-1.61-2.18-1-.13.34-.41.09-1.28-.91-.21-.24-.48-.48-.72-.72-1.81-1.81-3.63-3.62-5.43-5.45a7.16,7.16,0,0,1-.67-.93l.18,0L89.46,37c-.17.55-.85.26-1.63-.46a14.23,14.23,0,0,1-1.66.63c-.79.2-.38,1,1.28,2.43,1,.91,2.06,1.88,3.09,2.83a24.8,24.8,0,0,0,2,1.79A47.77,47.77,0,0,1,98,48.66a16.3,16.3,0,0,0,1.25,1c.62.48,1.24.94,2,1.53-.69.37-.47.86.79,2.09.64.62,1.32,1.21,1.94,1.84,2,2.07,4,4.16,6,6.24,0,0,0,.06,0,.11a3.73,3.73,0,0,1-.36-.27q-3.94-3.75-7.86-7.52c-.2-.19-.3-.51-.51-.73-.6-.63-1.24-1.24-1.86-1.86-.08.19-.27.3-.22.58.11.74.32,1.56.5,2.39-1.25-.66-1.24-.65-1.56-1.65a2.68,2.68,0,0,0-.44-.63A11,11,0,0,0,94,49.19a1.6,1.6,0,0,1-.75-.32c-.93-.88-1.86-1.8-2.75-2.72-1.62-1.67-3.35-2.42-3.44-1.47-.06.66-1.8.42-2.68-.37-1.7-1.53-2.4-1.52-2.83-1.28-.16.09-.13.45-.39.36-1.16-.37-1,.35-.44,1.4l-1-.37A14,14,0,0,0,80.61,45.84Zm37.82,36.63,4,4.42-.23.06a8.57,8.57,0,0,0-.62-.76c-.39-.38-.8-.72-1.2-1.09-.66-.62-1.35-1.24-2-1.9a2.08,2.08,0,0,1-.3-.83ZM113.5,64.34a11.85,11.85,0,0,1,1.07,1.28l-1-.8v.06l1.25,1.19a8.5,8.5,0,0,1-3-2.88C112.33,63.56,112.91,63.9,113.5,64.34ZM123.85,58c-1.68-1.67-2.63-3.92-1.47-3.77a1.58,1.58,0,0,1,.51.28l3.5,2.57a9.33,9.33,0,0,0,.57,1.43,8.56,8.56,0,0,0,1,1c.11-.11.36-.13.3-.36-.21-.77.06-.77,1.09.24,1.34,1.32,3,2.51,3.85,4.07.18.31.32.73.19.77a19.32,19.32,0,0,1-2.57.5c-.39.05-.85-.31-1.59-1.11C127.49,61.76,125.7,59.84,123.85,58Zm-18-10.18c.06-.46.14-.9.18-1.37s0-.9,0-1.4c1,1.08,2.63,2.1,3.58,3.76a4.71,4.71,0,0,0,1.22,1.06,6.23,6.23,0,0,0,1.88.55,2.34,2.34,0,0,1,1.59,1.07c.71.88,2,1.9,1.74,2.6-.14.34.45,1.35.64,2,.06.21,0,.41-.12.42a4.84,4.84,0,0,1-1-.06c-1.62-1.37-3.08-2.65-4.55-3.83a16.06,16.06,0,0,1-2.88-2.51A30.21,30.21,0,0,0,105.88,47.82Zm32.68,23.35-3.1-5.7.28,0c.47.47,1,.93,1.4,1.4,1.66,1.81,3.62,3.45,5,5.46s1.1,3.18-.59,2.34a3.93,3.93,0,0,1-1-.72c-.75-.82-1.45-1.65-2.24-2.57l.58,0Zm246.82,2.62c.07.53-.3,1.56.12,1.64s.25.69.08,1.26l1.35-.9c-.94,1.38.41,1.32-.86,2.88l.57-.38.33,2.62,2.38-2.38c.2.2.25.63.63.56,1-.19,2-1.55,2.8-2.44a4.17,4.17,0,0,1,1.71-1.35A3.42,3.42,0,0,0,396,74.25c.27-.28.59-.52.88-.78l.1.1-2.34,2.66a16.69,16.69,0,0,0,1.64-1.49c1.26-1.24,2.49-2.53,3.78-3.7,1-.93,2.76-1.7,2.57-.74a17.06,17.06,0,0,1-.83,2.44,3.87,3.87,0,0,1-.53.54l-.16-.3-1,1.43.89-.55a2.51,2.51,0,0,1,.49.39c.31.42,1,.52.41,1.68-.23.47-.69,1.13-.64,1.37s-.11.49-.52.94a4,4,0,0,0-.88,1.3c0,.32.33.37.58.57l-.24.41,1.51-1.43-.15-.38c.74-.6,1.43-1.09,2.05-1.69s1.17-1.3,1.85-2.08l-.11.46,1-.82a2.38,2.38,0,0,0,.88.2,2,2,0,0,0,.85-.5A49.17,49.17,0,0,1,412,70.61a9.38,9.38,0,0,0,.89-.95c1.15-1.6,2.69-3.11,4-4.68,1.62-2,3.28-3.92,4.66-5.9.52-.75,1.39-1.71.78-2-.33-.15-.11-.39.78-1.15.22-.18.42-.42.63-.63,1.59-1.59,3.17-3.18,4.77-4.75a5.6,5.6,0,0,1,.83-.57l0,.17,4.55-4.85c-.53-.2-.29-.82.33-1.5a15.37,15.37,0,0,1-.7-1.6c-.24-.75-.95-.41-2.2,1-.79.92-1.64,1.81-2.46,2.72a18.94,18.94,0,0,0-1.56,1.74,36.68,36.68,0,0,1-3.83,4.88,12.55,12.55,0,0,0-.9,1.11c-.41.55-.8,1.1-1.31,1.81-.39-.67-.83-.49-1.91.61-.54.56-1,1.16-1.6,1.7-1.82,1.77-3.65,3.51-5.47,5.27,0,0-.06,0-.1,0a2.83,2.83,0,0,1,.23-.32q3.27-3.46,6.56-6.9c.17-.18.46-.25.65-.43.55-.53,1.09-1.08,1.63-1.63-.18-.09-.3-.27-.56-.25-.69.06-1.44.2-2.21.32.54-1.13.54-1.12,1.45-1.36a2.06,2.06,0,0,0,.56-.37,8.56,8.56,0,0,0,2.26-3.32,1.32,1.32,0,0,1,.25-.68c.77-.82,1.57-1.63,2.38-2.41,1.46-1.41,2.06-3,1.16-3.13-.62-.1-.51-1.71.18-2.49,1.33-1.49,1.27-2.15,1-2.58-.09-.16-.43-.15-.37-.39.28-1.06-.39-1-1.34-.5l.29-.92a10.91,10.91,0,0,0-1.29.78c-.42.33-.92,1-1.23,1.17a17.6,17.6,0,0,0-3.84,3.22c-.78.76-1.47,1.64-2.28,2.56-.42-.6-.11-2.12-2.46,0l-.35-.79a21.44,21.44,0,0,1-2.45,1.87,6.64,6.64,0,0,0-2.32,2.05c-.3.41-.16.79-.21,1.19l.2.07a17,17,0,0,1-2.23,1.73,12.38,12.38,0,0,0-4.47,4.06,6,6,0,0,1-.77.87c-1.43,1.42-2.9,2.81-4.29,4.26-1.21,1.26-2.3,2.6-3.5,3.86a33.57,33.57,0,0,1-3.22,3,26.67,26.67,0,0,0-4.62,4.47,1.9,1.9,0,0,1-.46.43c-1.3.59-1.08,1.37-1.61,2-.21.27,0,.62.06.84S385.35,73.57,385.37,73.79Zm25.29-9.21c-.32.52-.59,1-1,1.57a8.89,8.89,0,0,1-1.13.93l.69-.9h-.06l-1,1.09A6.54,6.54,0,0,1,410.66,64.57Zm-20.95,7.75c.33-.34.62-.71.95-1.06.54-.58,1.08-1.18,1.65-1.71.2-.18.5-.16.76-.23l-.07.3-3.89,3.45-.07-.22A6.66,6.66,0,0,0,389.72,72.32ZM415.08,80c.11.11.14.35.35.3.71-.15.73.1-.16,1-1.15,1.17-2.17,2.63-3.58,3.35-.28.14-.66.26-.71.13a19.73,19.73,0,0,1-.63-2.44c-.07-.37.23-.78.94-1.42,1.68-1.52,3.37-3.08,5-4.7s3.51-2.22,3.44-1.14a1.24,1.24,0,0,1-.23.46c-.71,1-1.43,2-2.19,3.12a7.71,7.71,0,0,0-1.3.44A6.54,6.54,0,0,0,415.08,80Zm6.7-12.25c-.78.61-1.65,1.79-2.33,1.47-.33-.16-1.24.33-1.85.48-.2,0-.38,0-.41-.14a4.41,4.41,0,0,1,0-.89c1.18-1.43,2.29-2.72,3.31-4a12.41,12.41,0,0,1,2.18-2.54,23,23,0,0,0,2-2.08c.44.09.85.19,1.29.25s.84.09,1.32.13c-.94.91-1.81,2.34-3.3,3.12a3.6,3.6,0,0,0-.92,1.07,5.25,5.25,0,0,0-.4,1.72A1.86,1.86,0,0,1,421.79,67.76ZM404.86,89.2,410,86.65v.26c-.41.41-.81.84-1.23,1.22-1.6,1.44-3,3.18-4.81,4.31s-2.91.83-2.23-.7a3,3,0,0,1,.61-.86c.72-.65,1.46-1.25,2.27-1.94l.08.55ZM260.92,485.79c-.25-2.05-.45-4.12-.88-6-.16-.73-.23-1.77-.85-1.58-.34.1-.35-.16-.26-1.1,0-.23,0-.48,0-.72,0-1.81,0-3.63,0-5.44a3.72,3.72,0,0,1,.18-.8l.09.11-.21-5.37c-.51.19-.78-.3-.83-1-.59-.18-1.11-.3-1.62-.51-.7-.3-1,.31-.82,1.85.09,1,.12,2,.18,3A12.35,12.35,0,0,0,256,470a24.33,24.33,0,0,1,.75,5,8.17,8.17,0,0,0,.15,1.15c.1.55.21,1.09.35,1.78-.75-.16-.94.2-.92,1.44,0,.63.08,1.26.07,1.89,0,2-.09,4.09-.15,6.14,0,0-.06,0-.11,0a1.81,1.81,0,0,1-.06-.31c-.09-2.56-.17-5.13-.25-7.69,0-.2.15-.41.15-.62,0-.62,0-1.24,0-1.86-.19.05-.4,0-.57.18-.45.43-.88.94-1.34,1.45-.42-1-.41-.95.06-1.6a1.39,1.39,0,0,0,.13-.53,5.8,5.8,0,0,0-.75-3.19,1,1,0,0,1-.3-.53c0-.91,0-1.83,0-2.74,0-1.64-.66-2.88-1.4-2.45-.51.3-1.57-.69-1.63-1.53-.12-1.61-.62-2-1.1-2.06-.18,0-.41.16-.53,0-.56-.77-1-.34-1.3.48l-.45-.69a7.42,7.42,0,0,0-.36,1.18,12.18,12.18,0,0,1,0,1.37,11.57,11.57,0,0,0-.44,4c0,.88.12,1.78.2,2.76-.72-.11-1.58-1.14-1.71,1.43l-.81-.25a14.28,14.28,0,0,1-.41,2.47,4.38,4.38,0,0,0-.19,2.5c.08.4.45.54.69.8l.19-.08a11.26,11.26,0,0,1-.36,2.26,8.17,8.17,0,0,0-.29,4.87,4,4,0,0,1,.07.94c0,1.63-.06,3.26,0,4.89,0,1.41.22,2.8.25,4.21a22.11,22.11,0,0,1-.13,3.57,17.43,17.43,0,0,0-.1,5.19,1.27,1.27,0,0,1,0,.51c-.51,1.08.2,1.4.3,2.09,0,.27.41.38.64.45s.4-.16.57-.05c.43.26.89,1.06,1.25.87s.67.26.95.68l.32-1.28c.32,1.32,1.22.52,1.42,2.14l.14-.54L251,512v-2.72c.28,0,.62.22.84,0,.59-.69.31-2,.25-3a2.79,2.79,0,0,1,.25-1.75,2.32,2.32,0,0,0,.33-1.48c0-.32,0-.63.07-1h.15l.23,2.86a11,11,0,0,0,.11-1.79c0-1.43,0-2.87.05-4.27.06-1.11.75-2.55,1.3-1.89a13,13,0,0,1,1.14,1.87,2.51,2.51,0,0,1,0,.61l-.33-.08.34,1.36.23-.82a3,3,0,0,1,.62-.06c.51.06,1.06-.26,1.48.73.17.4.31,1,.52,1.15s.27.35.29.83a2.73,2.73,0,0,0,.3,1.25c.2.21.49,0,.81,0l.12.37.06-1.68-.37-.13a21.31,21.31,0,0,0,.26-2.14c0-.7-.09-1.41-.16-2.25l.24.33.12-1a2.52,2.52,0,0,0,.76-.39,1.36,1.36,0,0,0,.25-.77,31.86,31.86,0,0,1,.15-4.32,6.22,6.22,0,0,0,0-1.05C261.09,489.18,261.12,487.43,260.92,485.79ZM247,506.29l-.2-.09a4.32,4.32,0,0,0,.1-.69c0-.38-.06-.76-.08-1.14,0-.64-.07-1.29,0-1.92,0-.22.24-.38.37-.57l.16.21Zm9.5-14.55-.15-.91,0,0,0,1.22a4.32,4.32,0,0,1-.11-3,15,15,0,0,1,.42,1.45A5.87,5.87,0,0,1,256.51,491.74Zm14.26,8.74a21.21,21.21,0,0,1-2.17-1c-.31-.17-.39-.58-.34-1.35.12-1.83.2-3.69.2-5.53,0-1.67.91-3.27,1.63-2.62a.91.91,0,0,1,.17.39c.22,1,.43,2,.66,3a5.79,5.79,0,0,0-.61,1,4.27,4.27,0,0,0,0,1c.16,0,.34.12.46,0,.4-.49.59-.36.6.66,0,1.33.33,2.74-.16,4C271.08,500.25,270.89,500.53,270.77,500.48ZM266,483.25a1.3,1.3,0,0,1,.37,1.33c-.12.8.1,2-.61,2.17-.34.1-.64.9-1,1.33-.11.14-.27.22-.39.15a4.12,4.12,0,0,1-.63-.51c-.18-1.49-.31-2.87-.51-4.19a8.15,8.15,0,0,1-.26-2.69,15.12,15.12,0,0,0,0-2.35c.37-.2.73-.38,1.09-.59s.66-.43,1-.68c0,1.06.37,2.37-.13,3.67A2.38,2.38,0,0,0,265,482,4.26,4.26,0,0,0,266,483.25Zm5.41,18.86.18.16c0,.47,0,.94,0,1.4-.11,1.74.12,3.54-.36,5.21s-1.47,2.14-2.07.87a2,2,0,0,1-.17-.84c0-.78.15-1.55.23-2.4l.44.27-.1-.27ZM140.59,439c0-.6.57-1.82.1-1.86s-.18-.76.09-1.43l-1.67,1.22c1.27-1.71-.28-1.45,1.4-3.41l-.71.51c0-1,0-1.9,0-2.95l-3.06,3.06c-.2-.2-.19-.68-.64-.55-1.19.36-2.5,2.06-3.55,3.19a6.79,6.79,0,0,1-2.14,1.79,5.5,5.5,0,0,0-1.89,1.43c-.35.36-.74.68-1.12,1l-.11-.1,3.06-3.38a27.64,27.64,0,0,0-2.09,1.94c-1.61,1.6-3.21,3.24-4.85,4.77-1.3,1.21-3.4,2.34-3,1.21a25,25,0,0,1,1.3-2.91,6.29,6.29,0,0,1,.68-.69l.14.32,1.29-1.77-1.09.76c-.21-.15-.4-.22-.5-.37-.29-.43-1-.46-.23-1.86.33-.57,1-1.39.92-1.65s.2-.58.73-1.14a6.48,6.48,0,0,0,1.19-1.62c.09-.38-.33-.37-.58-.57l.33-.51-1.93,1.85.12.41c-.93.79-1.8,1.46-2.59,2.23s-1.52,1.65-2.41,2.64l.2-.54-1.24,1.07a2.41,2.41,0,0,0-1-.11,3.09,3.09,0,0,0-1,.69c-1.54,1.84-3.36,3.12-5,4.76a15.41,15.41,0,0,0-1.15,1.21c-1.54,2-3.52,3.94-5.22,5.92-2.14,2.49-4.31,5-6.16,7.41-.7.93-1.83,2.15-1.17,2.38.35.12.07.43-1,1.42-.27.24-.54.54-.81.81-2,2-4.08,4.09-6.13,6.11a8.94,8.94,0,0,1-1,.77l.06-.2-5.9,6.2c.57.15.22.89-.59,1.76a13.68,13.68,0,0,1,.57,1.73c.16.83,1,.34,2.66-1.51,1-1.16,2.13-2.31,3.2-3.46.69-.74,1.52-1.52,2-2.21a60.24,60.24,0,0,1,5.07-6.13c.43-.45.81-.93,1.19-1.4.55-.69,1.07-1.38,1.75-2.25.35.71.88.44,2.27-1,.7-.72,1.36-1.47,2.08-2.17,2.33-2.28,4.67-4.54,7-6.8,0,0,.07,0,.11,0a4.67,4.67,0,0,1-.31.4q-4.23,4.42-8.48,8.83c-.22.23-.56.35-.8.59-.71.68-1.4,1.39-2.09,2.09.2.08.3.27.61.2.8-.16,1.68-.44,2.58-.68-.78,1.37-.77,1.36-1.85,1.76a3.29,3.29,0,0,0-.69.51,13.74,13.74,0,0,0-3.06,4.12,1.93,1.93,0,0,1-.39.81c-1,1-2,2.08-3.07,3.09-1.88,1.82-2.78,3.71-1.77,3.75.69,0,.34,1.89-.57,2.88-1.73,1.9-1.76,2.64-1.54,3.09.08.17.47.11.36.39-.47,1.26.3,1.07,1.46.38l-.46,1.1A17.4,17.4,0,0,0,90,487.32c.53-.44,1.2-1.29,1.57-1.52a28.79,28.79,0,0,0,4.85-4.23c1-1,1.92-2.09,3-3.25.39.63-.17,2.4,2.81-.4l.29.85a35.13,35.13,0,0,1,3.07-2.49,10.88,10.88,0,0,0,2.94-2.68c.4-.51.29-.93.41-1.39l-.22,0a28,28,0,0,1,2.8-2.29,20.3,20.3,0,0,0,5.69-5.28,10,10,0,0,1,1-1.1c1.84-1.83,3.72-3.63,5.51-5.48,1.56-1.61,3-3.3,4.56-4.91a55.61,55.61,0,0,1,4.11-3.93,44,44,0,0,0,5.91-5.77,3.16,3.16,0,0,1,.59-.56c1.57-.86,1.43-1.72,2.13-2.56a.92.92,0,0,0,.06-1C141,439.15,140.59,439.25,140.59,439Zm-30.22,14.15c.44-.64.83-1.27,1.34-1.93a14.88,14.88,0,0,1,1.42-1.22l-.91,1.13h.07l1.34-1.4A10.72,10.72,0,0,1,110.37,453.15Zm25-11.85c-.43.43-.81.9-1.23,1.34-.7.74-1.4,1.51-2.14,2.19a2.48,2.48,0,0,1-.9.37l.12-.35,4.94-4.5,0,.24A11,11,0,0,0,135.42,441.3Zm-27.9-5.16c-.11-.11-.11-.38-.36-.3-.83.27-.82,0,.33-1.17,1.48-1.5,2.86-3.32,4.57-4.34.34-.21.8-.39.83-.25a19.45,19.45,0,0,1,.37,2.7c0,.41-.38.93-1.28,1.75-2.14,2-4.29,4-6.36,6.08-1.88,1.89-4.33,3-4.1,1.79a1.93,1.93,0,0,1,.33-.56l2.95-3.88a11,11,0,0,0,1.55-.69A10.71,10.71,0,0,0,107.52,436.15ZM101,449.09c.35.13,1.46-.56,2.18-.81.23-.08.43-.05.44.1a5.27,5.27,0,0,1-.12,1c-1.55,1.8-3,3.44-4.35,5.07a20.33,20.33,0,0,1-2.85,3.21c-.91.77-1.83,1.86-2.61,2.67-.49,0-.95-.09-1.44-.1s-.95,0-1.49,0c1.21-1.18,2.4-2.93,4.22-4a5.9,5.9,0,0,0,1.21-1.36,7.27,7.27,0,0,0,.71-2,2.89,2.89,0,0,1,1.23-1.76C99.09,450.29,100.25,448.82,101,449.09Zm19.54-24.91-6.25,3.65.05-.3c.53-.53,1-1.08,1.58-1.57,2-1.88,3.89-4.06,6.12-5.61s3.44-1.37,2.45.48a4.89,4.89,0,0,1-.82,1.07c-.91.85-1.85,1.64-2.87,2.54,0-.29,0-.45,0-.62Zm325.62,42c-.38-.47-1.15-1.06-1.34-1.4a22.87,22.87,0,0,0-3.73-4.34c-.87-.89-1.87-1.69-2.9-2.62.61-.4,2.26,0-.22-2.64l.82-.32a28.14,28.14,0,0,1-2.18-2.76,8.62,8.62,0,0,0-2.36-2.63c-.46-.35-.86-.22-1.28-.31l-.06.21a22.13,22.13,0,0,1-2-2.51,16.1,16.1,0,0,0-4.67-5.08,7.82,7.82,0,0,1-1-.88c-1.63-1.63-3.22-3.31-4.87-4.9-1.43-1.38-3-2.65-4.38-4a43.81,43.81,0,0,1-3.48-3.66,34.77,34.77,0,0,0-5.12-5.26,2.48,2.48,0,0,1-.49-.52c-.72-1.44-1.54-1.26-2.3-1.87a.86.86,0,0,0-.9,0c-.19.07-.12.44-.35.45-.57,0-1.69-.44-1.75,0s-.73.22-1.35,0l1.06,1.51c-1.55-1.1-1.39.35-3.15-1.13l.44.64-2.78.17L398.5,425c-.2.2-.66.22-.55.64.27,1.11,1.81,2.25,2.82,3.18a5.4,5.4,0,0,1,1.57,1.93,4.39,4.39,0,0,0,1.25,1.71c.32.31.6.66.9,1l-.1.1-3-2.7a21.86,21.86,0,0,0,1.72,1.87c1.42,1.43,2.88,2.85,4.24,4.31,1.07,1.16,2,3.08,1,2.81a20.62,20.62,0,0,1-2.67-1.06,5.06,5.06,0,0,1-.62-.61l.31-.15-1.6-1.12.66,1a2.22,2.22,0,0,1-.38.5c-.42.3-.49,1-1.77.32-.52-.28-1.27-.82-1.51-.78s-.54-.16-1-.63a5.18,5.18,0,0,0-1.46-1c-.35-.06-.37.33-.57.58l-.46-.28,1.64,1.72.39-.13c.7.83,1.28,1.62,2,2.32s1.48,1.34,2.36,2.13l-.5-.16.94,1.11a2.37,2.37,0,0,0-.15.92,2.49,2.49,0,0,0,.59.95c1.65,1.35,2.76,3,4.22,4.43a12.17,12.17,0,0,0,1.08,1c1.8,1.34,3.52,3.1,5.3,4.6,2.23,1.88,4.44,3.8,6.65,5.41.84.61,1.93,1.61,2.18,1,.13-.34.41-.09,1.28.91.21.24.48.48.72.72,1.81,1.81,3.63,3.62,5.43,5.45a7.2,7.2,0,0,1,.67.93l-.18,0,5.52,5.23c.17-.55.85-.26,1.63.46a14.14,14.14,0,0,1,1.66-.63c.79-.2.38-1-1.28-2.43-1-.91-2.06-1.88-3.09-2.83a24.47,24.47,0,0,0-2-1.79,47.93,47.93,0,0,1-5.5-4.45c-.4-.38-.84-.72-1.25-1-.62-.48-1.24-.94-2-1.53.69-.37.47-.86-.79-2.09-.64-.62-1.32-1.21-1.94-1.84-2-2.07-4-4.16-6-6.24,0,0,0-.06,0-.11a3.52,3.52,0,0,1,.36.27q3.94,3.75,7.86,7.52c.2.19.3.51.51.73.6.63,1.24,1.24,1.86,1.86.08-.19.27-.3.22-.58-.11-.74-.32-1.56-.5-2.39,1.25.66,1.24.66,1.56,1.65a2.68,2.68,0,0,0,.44.63,11,11,0,0,0,3.72,2.66,1.59,1.59,0,0,1,.75.32c.93.88,1.86,1.8,2.75,2.72,1.62,1.67,3.35,2.42,3.44,1.47.06-.66,1.8-.42,2.68.37,1.7,1.53,2.4,1.52,2.83,1.28.16-.09.13-.45.39-.36,1.16.37,1-.35.44-1.4l1,.37A14,14,0,0,0,446.14,466.16Zm-37.81-36.62-4-4.42.23-.06a8.77,8.77,0,0,0,.62.76c.39.38.8.72,1.2,1.09.66.62,1.35,1.24,2,1.9a2.08,2.08,0,0,1,.3.83Zm4.93,18.12a11.82,11.82,0,0,1-1.07-1.28l1,.8v-.06L412,445.93a8.5,8.5,0,0,1,3,2.88C414.42,448.43,413.84,448.1,413.25,447.66ZM402.9,454c1.68,1.67,2.63,3.92,1.47,3.77a1.56,1.56,0,0,1-.51-.28l-3.5-2.57a9.18,9.18,0,0,0-.57-1.43,8.43,8.43,0,0,0-1-1c-.11.11-.36.13-.3.36.21.77-.06.77-1.09-.24-1.34-1.32-3-2.51-3.85-4.07-.18-.31-.32-.73-.19-.77a19.43,19.43,0,0,1,2.57-.5c.39-.05.85.3,1.59,1.11C399.26,450.24,401.05,452.16,402.9,454Zm18,10.18c-.06.46-.14.9-.18,1.37s0,.9,0,1.4c-1-1.08-2.63-2.1-3.58-3.76a4.68,4.68,0,0,0-1.22-1.06,6.23,6.23,0,0,0-1.88-.55,2.34,2.34,0,0,1-1.59-1.07c-.71-.88-2-1.9-1.74-2.6.14-.34-.45-1.35-.64-2-.06-.22,0-.41.12-.42a4.75,4.75,0,0,1,1,.06c1.62,1.37,3.08,2.65,4.55,3.83a16.14,16.14,0,0,1,2.88,2.51A30,30,0,0,0,420.88,464.18ZM388.2,440.83l3.1,5.7-.28,0c-.47-.47-1-.92-1.4-1.4-1.66-1.81-3.62-3.45-5-5.46s-1.1-3.18.59-2.34a3.91,3.91,0,0,1,1,.72c.75.82,1.45,1.65,2.24,2.57l-.58,0Z"/></svg>